<svg width="3197" height="1026" viewBox="0 0 3197 1026" fill="none" xmlns="http://www.w3.org/2000/svg">
<path d="M453.181 741.732L537.16 920.059L751.364 851.449L747.294 728.45L596.464 750.779L606.592 544.283L733.614 548.674L737.554 400.89L593.177 414.039L608.364 334.092L788.466 358.2L833.853 247.882L515.308 170.709L453.181 741.732Z" fill="#ED1B24"/>
<path d="M192.344 135.522L453.9 93.0253L410.293 647.462L427.653 794.455L236.867 972.074L90.789 861.337L41.0332 661.822L182.906 587.052L260.487 778.068L299.674 735.372L192.344 135.522Z" fill="#ED1B24"/>
<path d="M2716.49 140.455L2447.12 93.9804L2489.58 567.295L2501.21 819.253L2762.71 764.051L2840.58 431.64L2716.49 140.455Z" fill="#ED1B24"/>
<path d="M2728.84 438.092L2677.75 600.983L2591.33 616.496L2603.86 436.565L2575.78 249.95L2672.12 291.915L2728.84 438.092Z" fill="black"/>
<path fill-rule="evenodd" clip-rule="evenodd" d="M1160.87 257.147L1204.97 588.204L1169.14 864.223L832.447 774.685L793.068 446.959L943.496 240.297L1160.87 257.147ZM981.3 382.532L911.205 513.864V528.236L974.212 680.026H1000.99L1069.51 516.838L1073.45 462.323L1012.8 378.071L981.3 382.532Z" fill="#ED1B24"/>
<path fill-rule="evenodd" clip-rule="evenodd" d="M1556.86 233.769L1611.3 486.186L1546.88 564.503L1419.53 616.496L1497.69 807.095L1317.53 848.015L1178.52 221.936V201.653L1556.86 233.769ZM1402.78 509.144L1453.29 464.092L1453.42 463.973L1453.41 463.814L1445.22 340.719L1444.9 340.636L1336.07 312.808L1402.78 509.144Z" fill="#ED1B24"/>
<path fill-rule="evenodd" clip-rule="evenodd" d="M2025.59 225.209L2047.16 795.563L1855.49 780.704L1877.52 638.3L1774.39 626.67L1704.06 746.075L1516.61 712.327L1863.25 270.878L1930.78 202.269L2025.59 225.209ZM1805.65 565.494L1896.49 577.411L1916.61 367.53L1805.65 565.494Z" fill="#ED1B24"/>
<path fill-rule="evenodd" clip-rule="evenodd" d="M2418.72 207.719L2370.63 552.285L2307.58 599.085L2527.2 802.747L2381.1 874.781L2227.78 726.869L2306.48 983.792L2116.86 959.111L2100.39 602.225L2028.47 54.7925L2418.72 207.719ZM2186.98 463.685L2259.04 439.111L2277.4 300.952L2180.94 250.888L2186.98 463.685Z" fill="#ED1B24"/>
<path d="M2921.87 149.918L2769.14 139.643L2925.35 481.338L2769.07 863.128L2911.04 949.287L3154.03 237.365L3026.86 164.893L2969.34 339.45L2921.87 149.918Z" fill="#ED1B24"/>
<path d="M2034.93 38.3257L2425.17 191.251L2438.16 196.343L2436.23 210.163L2388.15 554.729L2387.12 562.07L2381.17 566.487L2335.22 600.595L2479.59 734.473L2471.93 568.496L2429.5 95.561L2427.45 72.6392L2450.12 76.5522L2719.5 123.027L2728.99 124.664L2732.76 133.521L2856.85 424.707L2859.12 430.035L2857.8 435.674L2779.93 768.085L2777.37 779.034L2766.36 781.356L2504.86 836.558L2493.95 838.861L2388.92 890.643L2377.77 896.142L2368.82 887.509L2264.72 787.079L2323.39 978.613L2331.43 1004.88L2304.19 1001.33L2114.58 976.649L2099.88 974.736L2099.19 959.926L2082.75 603.788L2047.44 334.98L2064.84 794.895L2065.59 814.73L2045.8 813.196L1854.13 798.337L1835.1 796.862L1838.02 778L1857.23 653.809L1783.8 645.53L1719.3 755.05L1713.05 765.664L1700.93 763.481L1513.48 729.733L1484.55 724.525L1502.7 701.405L1849.34 259.955L1849.95 259.176L1850.64 258.471L1918.17 189.863L1925.2 182.723L1934.94 185.079L2029.75 208.019L2030.8 208.271L2010.94 57.0962L2007.04 27.396L2034.93 38.3257ZM471.532 94.4116L428.061 647.118L437.233 724.788L497.727 168.795L499.904 148.779L519.473 153.52L838.018 230.694L858.053 235.547L850.209 254.612L804.822 364.929L799.634 377.539L786.12 375.729L622.614 353.842L614.929 394.297L735.95 383.277L755.764 381.473L755.233 401.362L751.294 549.145L750.819 566.965L733.003 566.349L623.402 562.56L615.184 730.128L744.704 710.955L764.314 708.052L764.97 727.866L769.04 850.865L769.482 864.217L756.759 868.292L542.556 936.902L527.773 941.637L521.16 927.594L441.11 757.612L445.217 792.38L446.27 801.288L439.704 807.399L248.918 985.019L238.034 995.152L226.183 986.168L80.1045 875.431L75.1367 871.666L73.6289 865.617L23.873 666.102L20.5166 652.643L32.7871 646.176L174.66 571.406L191.942 562.298L199.293 580.397L266.355 745.517L280.722 729.864L174.935 138.637L171.77 120.947L189.508 118.065L451.064 75.5679L473.298 71.9556L471.532 94.4116ZM2770.32 121.997L2923.05 132.272L2935.9 133.136L2939.02 145.622L2971.65 275.907L3010.06 159.358L3016.83 138.822L3035.61 149.527L3162.79 221.999L3175.5 229.239L3170.77 243.078L2927.77 955L2920.67 975.82L2901.86 964.406L2759.89 878.248L2746.98 870.41L2752.7 856.428L2906.08 481.725L2753.05 146.997L2740.71 120.004L2770.32 121.997ZM1180.02 184.031L1558.36 216.146L1571.39 217.252L1574.15 230.041L1628.59 482.458L1630.39 490.817L1624.96 497.421L1560.54 575.738L1557.7 579.188L1553.57 580.876L1442.62 626.174L1514.06 800.385L1521.98 819.715L1501.61 824.342L1321.45 865.262L1304.12 869.199L1300.27 851.849L1194.44 375.229L1222.5 585.869L1222.81 588.174L1222.51 590.481L1186.68 866.5L1184.09 886.498L1164.6 881.316L827.901 791.778L816.317 788.697L814.887 776.795L775.509 449.069L774.68 442.169L778.77 436.551L929.196 229.889L935.012 221.9L944.862 222.664L1162.24 239.514L1164.34 239.677L1161.26 225.77L1160.84 223.876V182.403L1180.02 184.031ZM992.673 398.784L928.891 518.289V524.708L986.021 662.34H989.233L1052.08 512.667L1055.34 467.447L1004.7 397.082L992.673 398.784ZM1833.85 551.355L1880.63 557.493L1891 449.403L1833.85 551.355ZM1410.93 478.169L1435.2 456.525L1428.43 354.678L1363.32 338.03L1410.93 478.169ZM2203.98 439.202L2242.95 425.911L2258.23 310.929L2199.48 280.433L2203.98 439.202Z" stroke="black" stroke-width="35.3721"/>
</svg>
